<mxfile host="65bd71144e">
    <diagram id="C43pDVkgHOOH9aRQeg0P" name="Solution 1">
        <mxGraphModel dx="454" dy="221" grid="1" gridSize="10" guides="1" tooltips="1" connect="1" arrows="1" fold="1" page="1" pageScale="1" pageWidth="850" pageHeight="1100" math="0" shadow="0">
            <root>
                <mxCell id="0"/>
                <mxCell id="1" parent="0"/>
                <mxCell id="-H3LCFXTukoZLFVZSKgM-3" value="" style="edgeStyle=none;html=1;" parent="1" source="-H3LCFXTukoZLFVZSKgM-1" target="-H3LCFXTukoZLFVZSKgM-2" edge="1">
                    <mxGeometry relative="1" as="geometry"/>
                </mxCell>
                <mxCell id="-H3LCFXTukoZLFVZSKgM-1" value="Start" style="ellipse;whiteSpace=wrap;html=1;" parent="1" vertex="1">
                    <mxGeometry x="110" y="20" width="90" height="30" as="geometry"/>
                </mxCell>
                <mxCell id="-H3LCFXTukoZLFVZSKgM-9" style="edgeStyle=none;html=1;exitX=0.5;exitY=1;exitDx=0;exitDy=0;entryX=0.5;entryY=0;entryDx=0;entryDy=0;" parent="1" source="-H3LCFXTukoZLFVZSKgM-2" target="-H3LCFXTukoZLFVZSKgM-4" edge="1">
                    <mxGeometry relative="1" as="geometry"/>
                </mxCell>
                <mxCell id="-H3LCFXTukoZLFVZSKgM-2" value="var a = 1;&lt;br&gt;var b = 2;&lt;br&gt;var c = 3;&lt;br&gt;var maximum = a" style="whiteSpace=wrap;html=1;" parent="1" vertex="1">
                    <mxGeometry x="95" y="115" width="120" height="60" as="geometry"/>
                </mxCell>
                <mxCell id="-H3LCFXTukoZLFVZSKgM-10" value="True" style="edgeStyle=none;html=1;exitX=1;exitY=0.5;exitDx=0;exitDy=0;entryX=0.5;entryY=0;entryDx=0;entryDy=0;" parent="1" source="-H3LCFXTukoZLFVZSKgM-4" target="-H3LCFXTukoZLFVZSKgM-6" edge="1">
                    <mxGeometry relative="1" as="geometry">
                        <Array as="points">
                            <mxPoint x="290" y="230"/>
                        </Array>
                    </mxGeometry>
                </mxCell>
                <mxCell id="-H3LCFXTukoZLFVZSKgM-11" value="False" style="edgeStyle=none;html=1;exitX=0;exitY=0.5;exitDx=0;exitDy=0;entryX=0.5;entryY=0;entryDx=0;entryDy=0;" parent="1" source="-H3LCFXTukoZLFVZSKgM-4" target="-H3LCFXTukoZLFVZSKgM-7" edge="1">
                    <mxGeometry x="-0.7407" relative="1" as="geometry">
                        <Array as="points">
                            <mxPoint x="50" y="230"/>
                            <mxPoint x="50" y="330"/>
                            <mxPoint x="150" y="330"/>
                        </Array>
                        <mxPoint as="offset"/>
                    </mxGeometry>
                </mxCell>
                <mxCell id="-H3LCFXTukoZLFVZSKgM-4" value="if b &amp;gt; maximum" style="rhombus;whiteSpace=wrap;html=1;" parent="1" vertex="1">
                    <mxGeometry x="115" y="190" width="80" height="80" as="geometry"/>
                </mxCell>
                <mxCell id="-H3LCFXTukoZLFVZSKgM-12" style="edgeStyle=none;html=1;exitX=0.5;exitY=1;exitDx=0;exitDy=0;entryX=0.5;entryY=0;entryDx=0;entryDy=0;" parent="1" source="-H3LCFXTukoZLFVZSKgM-6" target="-H3LCFXTukoZLFVZSKgM-7" edge="1">
                    <mxGeometry relative="1" as="geometry">
                        <Array as="points">
                            <mxPoint x="290" y="330"/>
                            <mxPoint x="160" y="330"/>
                        </Array>
                    </mxGeometry>
                </mxCell>
                <mxCell id="-H3LCFXTukoZLFVZSKgM-6" value="maximum = b" style="rounded=0;whiteSpace=wrap;html=1;" parent="1" vertex="1">
                    <mxGeometry x="230" y="250" width="120" height="60" as="geometry"/>
                </mxCell>
                <mxCell id="-H3LCFXTukoZLFVZSKgM-13" value="True" style="edgeStyle=none;html=1;exitX=1;exitY=0.5;exitDx=0;exitDy=0;entryX=0.5;entryY=0;entryDx=0;entryDy=0;" parent="1" source="-H3LCFXTukoZLFVZSKgM-7" target="-H3LCFXTukoZLFVZSKgM-8" edge="1">
                    <mxGeometry relative="1" as="geometry">
                        <Array as="points">
                            <mxPoint x="300" y="390"/>
                        </Array>
                    </mxGeometry>
                </mxCell>
                <mxCell id="-H3LCFXTukoZLFVZSKgM-18" value="False" style="edgeStyle=none;html=1;exitX=0;exitY=0.5;exitDx=0;exitDy=0;entryX=0.5;entryY=0;entryDx=0;entryDy=0;" parent="1" source="-H3LCFXTukoZLFVZSKgM-7" target="-H3LCFXTukoZLFVZSKgM-15" edge="1">
                    <mxGeometry x="-0.7781" relative="1" as="geometry">
                        <mxPoint x="160" y="520" as="targetPoint"/>
                        <Array as="points">
                            <mxPoint x="40" y="390"/>
                            <mxPoint x="40" y="490"/>
                            <mxPoint x="150" y="490"/>
                        </Array>
                        <mxPoint as="offset"/>
                    </mxGeometry>
                </mxCell>
                <mxCell id="-H3LCFXTukoZLFVZSKgM-7" value="if c &amp;gt; maximum" style="rhombus;whiteSpace=wrap;html=1;" parent="1" vertex="1">
                    <mxGeometry x="115" y="350" width="80" height="80" as="geometry"/>
                </mxCell>
                <mxCell id="-H3LCFXTukoZLFVZSKgM-17" style="edgeStyle=none;html=1;exitX=0.5;exitY=1;exitDx=0;exitDy=0;entryX=0.5;entryY=0;entryDx=0;entryDy=0;" parent="1" source="-H3LCFXTukoZLFVZSKgM-8" target="-H3LCFXTukoZLFVZSKgM-15" edge="1">
                    <mxGeometry relative="1" as="geometry">
                        <Array as="points">
                            <mxPoint x="300" y="490"/>
                            <mxPoint x="155" y="490"/>
                        </Array>
                    </mxGeometry>
                </mxCell>
                <mxCell id="-H3LCFXTukoZLFVZSKgM-8" value="maximum = c" style="rounded=0;whiteSpace=wrap;html=1;" parent="1" vertex="1">
                    <mxGeometry x="240" y="410" width="120" height="60" as="geometry"/>
                </mxCell>
                <mxCell id="-H3LCFXTukoZLFVZSKgM-19" style="edgeStyle=none;html=1;entryX=0.5;entryY=0;entryDx=0;entryDy=0;exitX=0.5;exitY=0.82;exitDx=0;exitDy=0;exitPerimeter=0;" parent="1" source="-H3LCFXTukoZLFVZSKgM-15" target="-H3LCFXTukoZLFVZSKgM-16" edge="1">
                    <mxGeometry relative="1" as="geometry"/>
                </mxCell>
                <mxCell id="-H3LCFXTukoZLFVZSKgM-15" value="print (maximum)" style="shape=document;whiteSpace=wrap;html=1;boundedLbl=1;" parent="1" vertex="1">
                    <mxGeometry x="95" y="520" width="120" height="50" as="geometry"/>
                </mxCell>
                <mxCell id="-H3LCFXTukoZLFVZSKgM-16" value="End" style="ellipse;whiteSpace=wrap;html=1;" parent="1" vertex="1">
                    <mxGeometry x="110" y="640" width="90" height="30" as="geometry"/>
                </mxCell>
            </root>
        </mxGraphModel>
    </diagram>
    <diagram name="Solution 2" id="w9t-rUjFwpu232-csw7z">
        <mxGraphModel dx="454" dy="221" grid="1" gridSize="10" guides="1" tooltips="1" connect="1" arrows="1" fold="1" page="1" pageScale="1" pageWidth="850" pageHeight="1100" math="0" shadow="0">
            <root>
                <mxCell id="0"/>
                <mxCell id="1" parent="0"/>
                <mxCell id="FTIzT63MQObTx-NsBkWJ-1" value="Start" style="ellipse;whiteSpace=wrap;html=1;" parent="1" vertex="1">
                    <mxGeometry x="320" y="30" width="120" height="50" as="geometry"/>
                </mxCell>
                <mxCell id="1PsqBrN-XsdXArFLPR13-14" style="edgeStyle=orthogonalEdgeStyle;rounded=0;orthogonalLoop=1;jettySize=auto;html=1;exitX=1;exitY=0.5;exitDx=0;exitDy=0;entryX=0;entryY=0.5;entryDx=0;entryDy=0;" parent="1" source="FTIzT63MQObTx-NsBkWJ-4" target="1PsqBrN-XsdXArFLPR13-12" edge="1">
                    <mxGeometry relative="1" as="geometry">
                        <mxPoint x="658" y="410" as="targetPoint"/>
                    </mxGeometry>
                </mxCell>
                <mxCell id="FTIzT63MQObTx-NsBkWJ-4" value="print (maximum)" style="shape=document;whiteSpace=wrap;html=1;boundedLbl=1;" parent="1" vertex="1">
                    <mxGeometry x="488" y="228" width="120" height="80" as="geometry"/>
                </mxCell>
                <mxCell id="vOQL0OsMB_VTcubJe9UO-1" style="edgeStyle=orthogonalEdgeStyle;rounded=0;orthogonalLoop=1;jettySize=auto;html=1;exitX=0.5;exitY=1;exitDx=0;exitDy=0;" parent="1" source="FTIzT63MQObTx-NsBkWJ-1" target="FTIzT63MQObTx-NsBkWJ-1" edge="1">
                    <mxGeometry relative="1" as="geometry"/>
                </mxCell>
                <mxCell id="1PsqBrN-XsdXArFLPR13-16" style="edgeStyle=orthogonalEdgeStyle;rounded=0;orthogonalLoop=1;jettySize=auto;html=1;exitX=0.5;exitY=1;exitDx=0;exitDy=0;entryX=0.5;entryY=0;entryDx=0;entryDy=0;" parent="1" source="1PsqBrN-XsdXArFLPR13-1" target="1PsqBrN-XsdXArFLPR13-4" edge="1">
                    <mxGeometry relative="1" as="geometry">
                        <mxPoint x="373" y="310" as="sourcePoint"/>
                    </mxGeometry>
                </mxCell>
                <mxCell id="1PsqBrN-XsdXArFLPR13-1" value="Numbers [1, 2, 3]&lt;br&gt;index = 0&lt;br&gt;size = 3&lt;br&gt;maximum = numbers [index]" style="rounded=0;whiteSpace=wrap;html=1;" parent="1" vertex="1">
                    <mxGeometry x="280" y="123" width="200" height="70" as="geometry"/>
                </mxCell>
                <mxCell id="1PsqBrN-XsdXArFLPR13-17" style="edgeStyle=orthogonalEdgeStyle;rounded=0;orthogonalLoop=1;jettySize=auto;html=1;exitX=0.5;exitY=1;exitDx=0;exitDy=0;entryX=0.5;entryY=0;entryDx=0;entryDy=0;" parent="1" source="FTIzT63MQObTx-NsBkWJ-1" target="1PsqBrN-XsdXArFLPR13-1" edge="1">
                    <mxGeometry relative="1" as="geometry">
                        <mxPoint x="500" y="160" as="sourcePoint"/>
                    </mxGeometry>
                </mxCell>
                <mxCell id="1PsqBrN-XsdXArFLPR13-6" value="True" style="edgeStyle=orthogonalEdgeStyle;rounded=0;orthogonalLoop=1;jettySize=auto;html=1;exitX=1;exitY=0.5;exitDx=0;exitDy=0;entryX=0.5;entryY=0;entryDx=0;entryDy=0;" parent="1" source="1PsqBrN-XsdXArFLPR13-3" target="1PsqBrN-XsdXArFLPR13-5" edge="1">
                    <mxGeometry x="-0.3226" y="12" relative="1" as="geometry">
                        <mxPoint as="offset"/>
                    </mxGeometry>
                </mxCell>
                <mxCell id="1PsqBrN-XsdXArFLPR13-8" value="False&lt;br&gt;" style="edgeStyle=orthogonalEdgeStyle;rounded=0;orthogonalLoop=1;jettySize=auto;html=1;exitX=0;exitY=0.5;exitDx=0;exitDy=0;entryX=0.5;entryY=0;entryDx=0;entryDy=0;" parent="1" source="1PsqBrN-XsdXArFLPR13-3" target="1PsqBrN-XsdXArFLPR13-7" edge="1">
                    <mxGeometry x="-0.8892" y="-12" relative="1" as="geometry">
                        <Array as="points">
                            <mxPoint x="258" y="401"/>
                            <mxPoint x="258" y="520"/>
                            <mxPoint x="376" y="520"/>
                        </Array>
                        <mxPoint as="offset"/>
                    </mxGeometry>
                </mxCell>
                <mxCell id="1PsqBrN-XsdXArFLPR13-3" value="number [index] &amp;gt; maximum" style="rhombus;whiteSpace=wrap;html=1;" parent="1" vertex="1">
                    <mxGeometry x="313" y="346" width="130" height="110" as="geometry"/>
                </mxCell>
                <mxCell id="1PsqBrN-XsdXArFLPR13-11" value="False" style="edgeStyle=orthogonalEdgeStyle;rounded=0;orthogonalLoop=1;jettySize=auto;html=1;exitX=1;exitY=0.5;exitDx=0;exitDy=0;entryX=0;entryY=0.5;entryDx=0;entryDy=0;" parent="1" source="1PsqBrN-XsdXArFLPR13-4" target="FTIzT63MQObTx-NsBkWJ-4" edge="1">
                    <mxGeometry relative="1" as="geometry"/>
                </mxCell>
                <mxCell id="1PsqBrN-XsdXArFLPR13-15" value="True" style="edgeStyle=orthogonalEdgeStyle;rounded=0;orthogonalLoop=1;jettySize=auto;html=1;exitX=0.5;exitY=1;exitDx=0;exitDy=0;entryX=0.5;entryY=0;entryDx=0;entryDy=0;" parent="1" source="1PsqBrN-XsdXArFLPR13-4" target="1PsqBrN-XsdXArFLPR13-3" edge="1">
                    <mxGeometry relative="1" as="geometry"/>
                </mxCell>
                <mxCell id="1PsqBrN-XsdXArFLPR13-4" value="index &amp;lt; size" style="shape=hexagon;perimeter=hexagonPerimeter2;whiteSpace=wrap;html=1;fixedSize=1;" parent="1" vertex="1">
                    <mxGeometry x="320" y="226" width="120" height="80" as="geometry"/>
                </mxCell>
                <mxCell id="1PsqBrN-XsdXArFLPR13-9" style="edgeStyle=orthogonalEdgeStyle;rounded=0;orthogonalLoop=1;jettySize=auto;html=1;exitX=0.5;exitY=1;exitDx=0;exitDy=0;entryX=0.5;entryY=0;entryDx=0;entryDy=0;" parent="1" source="1PsqBrN-XsdXArFLPR13-5" target="1PsqBrN-XsdXArFLPR13-7" edge="1">
                    <mxGeometry relative="1" as="geometry">
                        <Array as="points">
                            <mxPoint x="526" y="520"/>
                            <mxPoint x="376" y="520"/>
                        </Array>
                    </mxGeometry>
                </mxCell>
                <mxCell id="1PsqBrN-XsdXArFLPR13-5" value="maximum = number [index]" style="rounded=0;whiteSpace=wrap;html=1;" parent="1" vertex="1">
                    <mxGeometry x="441" y="435" width="169" height="60" as="geometry"/>
                </mxCell>
                <mxCell id="1PsqBrN-XsdXArFLPR13-10" style="edgeStyle=orthogonalEdgeStyle;rounded=0;orthogonalLoop=1;jettySize=auto;html=1;exitX=0.5;exitY=1;exitDx=0;exitDy=0;entryX=0;entryY=0.5;entryDx=0;entryDy=0;" parent="1" source="1PsqBrN-XsdXArFLPR13-7" target="1PsqBrN-XsdXArFLPR13-4" edge="1">
                    <mxGeometry relative="1" as="geometry">
                        <mxPoint x="280" y="250" as="targetPoint"/>
                        <Array as="points">
                            <mxPoint x="376" y="620"/>
                            <mxPoint x="200" y="620"/>
                            <mxPoint x="200" y="266"/>
                        </Array>
                    </mxGeometry>
                </mxCell>
                <mxCell id="1PsqBrN-XsdXArFLPR13-7" value="index = index + 1" style="rounded=0;whiteSpace=wrap;html=1;" parent="1" vertex="1">
                    <mxGeometry x="316" y="548" width="120" height="60" as="geometry"/>
                </mxCell>
                <mxCell id="1PsqBrN-XsdXArFLPR13-12" value="End" style="ellipse;whiteSpace=wrap;html=1;" parent="1" vertex="1">
                    <mxGeometry x="640" y="243" width="109" height="50" as="geometry"/>
                </mxCell>
            </root>
        </mxGraphModel>
    </diagram>
</mxfile>